<svg xmlns="http://www.w3.org/2000/svg" viewBox="40 70 240 190" width="240" height="190" fill="none">
  <g stroke="currentColor" stroke-width="1.6">
    <line x1="70" y1="240" x2="70" y2="90"/>
    <line x1="70" y1="90" x2="160" y2="200"/>
    <line x1="160" y1="200" x2="250" y2="90"/>
    <line x1="250" y1="90" x2="250" y2="240"/>
    <line x1="70" y1="165" x2="160" y2="200" stroke-dasharray="2 4" opacity="0.55"/>
    <line x1="250" y1="165" x2="160" y2="200" stroke-dasharray="2 4" opacity="0.55"/>
    <line x1="115" y1="135" x2="205" y2="135" stroke-dasharray="2 4" opacity="0.4"/>
  </g>
  <g fill="currentColor">
    <circle cx="70" cy="90" r="6"/>
    <circle cx="250" cy="90" r="6"/>
    <circle cx="70" cy="240" r="6"/>
    <circle cx="250" cy="240" r="6"/>
  </g>
  <circle cx="160" cy="200" r="9" fill="#a3e635"/>
  <circle cx="160" cy="200" r="14" fill="none" stroke="#a3e635" stroke-width="1.3" opacity="0.75"/>
  <g fill="currentColor" opacity="0.6">
    <circle cx="70" cy="135" r="2.5"/>
    <circle cx="70" cy="180" r="2.5"/>
    <circle cx="115" cy="135" r="2.5"/>
    <circle cx="205" cy="135" r="2.5"/>
    <circle cx="250" cy="135" r="2.5"/>
    <circle cx="250" cy="180" r="2.5"/>
  </g>
</svg>
